<?xml version="1.0" encoding="utf-8"?>
<!-- Generator: Adobe Illustrator 19.2.1, SVG Export Plug-In . SVG Version: 6.00 Build 0)  -->
<svg version="1.1" id="Слой_1" xmlns="http://www.w3.org/2000/svg" xmlns:xlink="http://www.w3.org/1999/xlink" x="0px" y="0px"
	 viewBox="0 0 128.7 226.1" style="enable-background:new 0 0 128.7 226.1;" xml:space="preserve">
<style type="text/css">
	.st0{fill:#CC4425;}
	.st1{fill:#FCC000;}
	.st2{enable-background:new    ;}
	.st3{fill:#FFFFFF;}
	.st4{fill:none;stroke:#FCC000;stroke-width:3;stroke-miterlimit:10;}
</style>
<g>
	<polyline class="st0" points="128.7,0 128.7,197.2 63.6,226.1 0,197.2 0,0 	"/>
	<path class="st1" d="M112.7,113c0,0,0.5-3.2-0.7-5.8c0,0-0.6,3.1-2.7,4.9C109.2,112.2,111.3,113,112.7,113z M93.5,128.9
		c-3.5-3.7-13-7.1-14-9.5c-0.7-1.6,1.6-1.7,2.4-1.1c-1,0.2-1.7,0.9-1.5,1.4c6.4,4.4,13-4.5,17.3-2.9c3.4,1.3,5.6,4,6.7,4.3
		s4.2-1.4,4.2-1.4c-0.7-0.6-1.7-1.2-2.6-1.8c3.5-3.4,3.8-8.9,1.1-12.9c0.5,3.8,0.1,9.2-4.7,10.7c-1.2-1.1-2.6-1.5-4.3-1.4
		c1.5-1.4,2.8-1.4,2.8-1.4c1.1,0.6,2.1,1.3,2.1,1.3c2.5-1.6,3.2-3.8,3.2-3.8c-4.9-3.8-4.8-7.2-7.1-9c-2.3-1.8-3.5-2.3-6.1-3
		c0.5,0.8,0.9,2.1,0.9,2.4c-1.3-1.2-2.3-2.6-5.7-4.4c-0.8,1-1,5.5,1,7.6c-2-0.8-3.1-4.1-2.9-6.7c-7.4-0.4-14.9,1.8-20.7,4.5
		c5.8-3.8,13.6-6.4,21.2-5.8c0.2-1,0.7-1.7,1.3-2c0.3,0.8,1.1,1.6,2.1,2.5c3.3,0.7,6.4,1.8,9.3,4c0.8-0.9,2.3-2.2,4.6-4.1
		c-1-0.7-1.9-1.4-2.9-2c-0.8,0.9-1.7,1.8-2.9,2.7c0.9-1.2,1.5-2.3,1.9-3.3c-0.8-0.5-1.6-0.9-2.4-1.3C97,93.7,96,94.8,95,95.7
		c0.8-1.5,1.4-2.7,1.8-3.8c-0.7-0.3-1.4-0.6-2.2-0.9c-0.6,1.5-1.5,2.7-2.6,3.8c0.8-1.8,1-3.3,1-4.4c-0.7-0.2-1.4-0.4-2.1-0.6
		c-0.4,1.4-1.3,2.8-2.2,3.9c0.5-1.8,0.7-3.2,0.7-4.3c-0.9-0.2-1.7-0.3-2.5-0.5c-0.2,1.5-1,3.4-1.6,4.5c0.1-2.2,0-3.7-0.2-4.7
		c-0.7-0.1-1.5-0.1-2.2-0.1c-0.1,1.4-0.8,3-1.2,4.6c0-1.9-0.2-3.5-0.6-4.6c-0.9,0-1.7,0.1-2.6,0.2c0.3,1.5,0.1,3.5-0.2,4.7
		c-0.4-2.1-1-3.6-1.5-4.5c-1,0.2-1.9,0.3-2.8,0.6c0.6,1.3,0.7,3.1,0.8,4.6c-1.1-2-2.1-3.3-2.9-4c-1,0.3-2,0.6-2.9,1
		c0.9,1.3,1.6,3,1.8,4.5c-1.1-1.9-2.4-3.2-3.4-3.9c-0.9,0.4-1.7,0.8-2.5,1.2c1,1.1,2.1,2.7,2.7,4.1c0,0-2-2.5-4.3-3.2
		c-0.8,0.5-1.7,1-2.4,1.5c1,0.8,2.8,2.3,3.5,3.5c0,0-2.3-1.8-4.9-2.5c-0.7,0.5-1.3,0.9-2,1.4c1,0.6,2.4,1.7,3.3,3
		c0,0-2.6-1.7-4.5-2.1c-0.6,0.5-1.2,0.9-1.8,1.4c0.7,0.3,2,1.1,3.4,2.4c0,0-2.7-0.7-4.7-1.4c-0.7,0.5-1.3,1-1.9,1.4
		c0.9,0.5,2.4,1.2,3.8,1.5c0.1,0-2.9,0.2-4.9-0.7c-1.2,0.8-2.3,1.5-3.5,2c2,1.2,8.1,1.2,10.1,0.7c-3.6,2.7-12,2.5-15.7,2.1
		s-7.1,1.2-11.3,4.2s-10.6,5.2-17.6,2.6c0,0.7,0.1,1.6,0.3,2.6c1.4,0.7,4.1,1,5.5,0.7c-1.2,0.9-3.6,1-4.8,1c0.6,1.1,1.5,2,2.9,2.6
		c2.2-0.4,3.9-1.9,4.2-2.4c-0.1,1.3-0.9,2.3-1.5,2.8c2.3,0.4,4.9-1.5,6.2-3c3.2-3.5,6.1-3.9,6.1-3.9c-4.3,5.3-1.2,12.2-9.2,14.4
		c-2.4,0.6-3.1,8-6.8,8.8c0,1.1-0.7,2.6-2.8,2.6c0,0.3-0.4,1-0.8,2c1.9,0.2,2.7-0.3,2.7-0.3c-1.3,1.5-2.5,2.1-3.5,2.4
		c-0.6,1.5-1,2.7-0.6,3.7c7-2.2,9.3-5.5,9.3-5.5c1.9-4.9,5-9.4,6.1-9.6c0.6-0.1,1.2-0.2,1.9-0.3c0.2,2.4-2.4,4.4-4,4.7
		c0,0-0.4,0.7-1,2.2c1.6-0.1,2.5-0.7,2.5-0.7c-0.4,0.9-2.1,1.9-3,2.2c-0.2,0.7-0.5,1.3-0.7,2.2c1.9,0.5,6.4-1.6,7.6-3.3
		c0.7-1.1,2.2-3.9,5.1-6.9c0,0-2.9-0.2-4.2-0.7c2.3-0.2,6.1-0.6,7.6-1.2c3.4-1.3,7.2-8.2,16.2-9c-5.3,2.1-8.4,4.3-9.3,6.2
		c6.1-2.3,24.8-3.2,26.6-2.5c-1.8-1.3-5.6-2.3-7.2-4.3c-1.2-1.5,3.2-5.1,3.2-5.1c-3.1-3.5-7.3-2.8-7.3-2.8c3.2-1.3,7.7,0.8,9.4,2
		c-4,2.5-4.6,5.1-2.1,6.7c4.3,2.8,14.5,2.3,14.6,3.7c0.3,2.6,7,2.6,7.9,5.8s3.1,3.5,3.1,3.5s0.4-1.3,1.9-0.2
		c1.4,1.1,1.5,1.7,1.5,1.7c1.8,0.1,3.5-0.1,5-0.4c-0.6-0.6-1.5-1.4-2.1-2.1c0,0,2.1,0.8,4.3,1.5c1.3-0.6,2.2-1.2,2.3-1.9
		c-1.6-0.8-2.6-1.4-2.6-1.4C97.2,131.9,95.5,131.2,93.5,128.9z M93,113.4c0,0,1.8-1.2,2.9-2.6c0,0,3-0.5,4.8,0.2
		C96.6,111,94.8,113.3,93,113.4z M100.5,108c-1.2-1.1-1.8-1.6-1.8-1.6c-1.7,3-5.7-0.9-2.4-1.8c-0.4-0.4-2.4-0.8-3.5-0.5
		C94.9,102.4,98.6,103,100.5,108z M91.9,101.8c-0.5,1.5-1.7,0.9-1.4,0.1c0.5-1.3-0.1-1.8-1-3.3C89.5,98.6,92.4,100.3,91.9,101.8z
		 M90.6,107.6c-2.5-0.6-3.9-0.2-5.3,0.9c1.3-0.1,2.8,1,3.7,1.8c-1.2,0-3,0.6-3.9,1.9c0,0,1.7-0.3,2.8,0.4c0,0-1.1,0.7-1.4,2.6
		c0,0,2.1-0.7,3.2-0.3c-1.1,0.4-4.1,1.6-4.6,3.8c-0.4-1.1-0.4-3.3,1-5.3c0,0-1.5-0.6-2.9-0.2c0.5-1,0.9-2,3.3-3c0,0-1.2-1.2-3.4-0.9
		C83.9,107,87,105.6,90.6,107.6z M48,117.1c-0.6,1.7-4.2,4.4-5,7.3c-0.3-3.1,4.5-6.8,2.9-8s-4.4-2.9-4.3-4.3
		C43.8,114.8,48.6,115.4,48,117.1z M55.2,112.4c2.4-3.8,6.1-7.3,10.8-5.9C62.3,106.6,57.9,109.7,55.2,112.4z M71.2,105.6
		c3.4-0.9,8.2,0,10.4,2.7c0.2,1.9,0.2,3.7-0.3,4.9C80.7,108.4,79.2,106.3,71.2,105.6z M100.1,123.6c-2.1,0.1-5.9-2.2-7.9-4.2
		c0,0-3,2.6-7.6,2.4c4,1.6,9.6,3.2,12.6,6.3c3.1-0.5,4.4,0.9,5.1,1.5c0.8,0,3.3-0.6,5.2-1.6c-0.9-0.3-2-0.8-2.5-1.5
		c0,0,2.6,0.5,4.1,0.3c0.4-0.5,0.7-1,0.7-1.6C106.7,125.3,102.1,123.5,100.1,123.6z M109.6,113.3c-0.3,1.2-0.7,2.4-2,4.1
		c0,0,0.7,0.8,2,1.3c0.3,0,3.7-2.2,4.7-4.2C114.3,114.5,112.1,114.5,109.6,113.3z"/>
	<g class="st2">
		<path class="st3" d="M15.2,182.2v-15.7h7.9v2.4h-5.3v3h4.3v2.4h-4.3v8H15.2z"/>
		<path class="st3" d="M31.9,166.5c1.2,0,2.2,0.3,3,1c0.8,0.7,1.2,1.6,1.2,2.7c0,1.1-0.2,1.9-0.7,2.5c-0.3,0.4-1,0.9-1.9,1.3
			l2.8,8.2l-2.6,0l-2.8-8l-1.9,0v8h-2.6v-15.7H31.9z M29.1,171.9h2.6c0.5,0,0.9-0.2,1.2-0.5c0.3-0.3,0.5-0.7,0.5-1.1
			c0-0.4-0.2-0.8-0.5-1.1c-0.3-0.3-0.7-0.5-1.2-0.5h-2.6V171.9z"/>
		<path class="st3" d="M39.8,182.2v-15.7h7.9v2.4h-5.3v3h4.2v2.4h-4.2v5.6h5.3v2.4H39.8z"/>
		<path class="st3" d="M55.5,182.2h-2.6v-13.3h-2.4v-2.4h7.5v2.4h-2.5V182.2z"/>
		<path class="st3" d="M60.8,182.2v-15.7h7.9v2.4h-5.3v3h4.2v2.4h-4.2v5.6h5.3v2.4H60.8z"/>
		<path class="st3" d="M79.5,172.3v-5.8h2.6v15.7h-2.6v-6.5l-4.4-4.2l-0.5,10.7h-2.6l0.7-16.3L79.5,172.3z"/>
		<path class="st3" d="M94.2,169.1c-0.9-0.3-1.8-0.4-2.7-0.4c-0.7,0-1.3,0.1-1.7,0.3s-0.6,0.6-0.6,1.1c0,0.6,0.5,1.1,1.5,1.6
			c1.5,0.6,2.4,1.1,2.8,1.4c1,0.8,1.5,2.1,1.5,3.7c0,1.9-0.6,3.3-1.7,4.3c-1,0.9-2.3,1.3-3.8,1.3c-1.1,0-2.1-0.2-3-0.7V179
			c0.8,0.5,1.8,0.8,2.9,0.8c0.9,0,1.7-0.2,2.2-0.7c0.7-0.5,1-1.3,1-2.3c0-1-0.5-1.8-1.6-2.3c-1-0.4-2-0.8-2.9-1.3
			c-1.1-0.6-1.6-1.6-1.6-2.8c0-0.2,0-0.4,0-0.6c0.1-1,0.6-1.9,1.4-2.6c0.9-0.8,2-1.1,3.5-1.1c0.9,0,1.9,0.2,2.9,0.5V169.1z"/>
		<path class="st3" d="M101.5,182.2h-2.6v-15.7h2.6V182.2z"/>
		<path class="st3" d="M112.6,169.1c-0.9-0.3-1.8-0.4-2.7-0.4c-0.7,0-1.3,0.1-1.7,0.3s-0.6,0.6-0.6,1.1c0,0.6,0.5,1.1,1.5,1.6
			c1.5,0.6,2.4,1.1,2.8,1.4c1,0.8,1.5,2.1,1.5,3.7c0,1.9-0.6,3.3-1.7,4.3c-1,0.9-2.3,1.3-3.8,1.3c-1.1,0-2.1-0.2-3-0.7V179
			c0.8,0.5,1.8,0.8,2.9,0.8c0.9,0,1.7-0.2,2.2-0.7c0.7-0.5,1-1.3,1-2.3c0-1-0.5-1.8-1.6-2.3c-1-0.4-2-0.8-2.9-1.3
			c-1.1-0.6-1.6-1.6-1.6-2.8c0-0.2,0-0.4,0-0.6c0.1-1,0.6-1.9,1.4-2.6c0.9-0.8,2-1.1,3.5-1.1c0.9,0,1.9,0.2,2.9,0.5V169.1z"/>
	</g>
	<g class="st2">
		<path class="st3" d="M52.4,199h1.8v2h-4.9v-1.8c0,0,2.6-1.5,2.6-2.4c0-0.3-0.2-0.5-0.5-0.5c-0.8,0-1.3,0.5-1.3,0.5l-0.9-1.4
			c0,0,0.8-1,2.6-1c1.6,0,2.6,1,2.6,2C54.3,198.1,52.4,199,52.4,199z"/>
		<path class="st3" d="M55.1,197.8c0-2,1.4-3.3,3.1-3.3c1.7,0,3.1,1.4,3.1,3.3c0,2-1.4,3.3-3.1,3.3
			C56.5,201.1,55.1,199.8,55.1,197.8z M57.5,197.8c0,0.9,0.4,1.3,0.7,1.3c0.4,0,0.7-0.4,0.7-1.3s-0.4-1.3-0.7-1.3
			C57.9,196.5,57.5,196.9,57.5,197.8z"/>
		<path class="st3" d="M62.1,197.8c0-2,1.4-3.3,3.1-3.3c1.7,0,3.1,1.4,3.1,3.3c0,2-1.4,3.3-3.1,3.3
			C63.4,201.1,62.1,199.8,62.1,197.8z M64.4,197.8c0,0.9,0.4,1.3,0.7,1.3c0.4,0,0.7-0.4,0.7-1.3s-0.4-1.3-0.7-1.3
			C64.8,196.5,64.4,196.9,64.4,197.8z"/>
		<path class="st3" d="M74.5,198.3v1.7h-0.5v1h-2.4v-1h-2.6v-1.7l2.3-3.6h2.7v3.6H74.5z M71.5,198.3v-1.2l-0.5,1.2H71.5z"/>
	</g>
	<g class="st2">
		<path class="st3" d="M29.9,68.9V74H15.3V39.3H21v29.6H29.9z"/>
		<path class="st3" d="M36.4,74V39.3h17.5v5.2H42.2v6.6h9.4v5.2h-9.4v12.4h11.6V74H36.4z"/>
		<path class="st3" d="M66,56.4c0,3.4,0.9,6.2,2.7,8.3c1.8,2.1,4.3,3.5,7.6,4.1V55.6h5.4v19.2c-5.7,0-10.2-1-13.8-3.1
			c-2.9-1.7-5-4.1-6.3-7.2c-1-2.4-1.6-5.1-1.6-7.9c0-5.5,1.5-9.8,4.6-13c3.3-3.5,8.2-5.2,14.5-5.2v5.6c-4.2,0-7.5,1.2-9.8,3.6
			C67.2,49.8,66,52.8,66,56.4z"/>
		<path class="st3" d="M89.6,74l6.5-19.7l-5.5-15l6.1,0L101,51l4.3-11.7l5.9,0l-5.6,14.3v0.2l-0.2,0.5l6.9,19.8h-6.1l-5.5-15.3
			L95.5,74L89.6,74z"/>
	</g>
	<line class="st4" x1="0" y1="21.3" x2="128.7" y2="21.3"/>
</g>
</svg>
