<?xml version="1.0" encoding="utf-8"?>
<!-- Generator: Adobe Illustrator 19.2.1, SVG Export Plug-In . SVG Version: 6.00 Build 0)  -->
<svg version="1.1" id="Слой_1" xmlns="http://www.w3.org/2000/svg" xmlns:xlink="http://www.w3.org/1999/xlink" x="0px" y="0px"
	 viewBox="0 0 100 100" style="enable-background:new 0 0 100 100;" xml:space="preserve">
<style type="text/css">
	.st0{fill:#CC4425;}
	.st1{fill:#FCC000;}
</style>
<g>
	<circle class="st0" cx="50" cy="50" r="50"/>
	<path class="st1" d="M89.4,45.2c0,0,0.4-2.4-0.5-4.3c0,0-0.4,2.3-2,3.6C86.8,44.5,88.4,45.1,89.4,45.2z M75.1,57
		c-2.6-2.8-9.6-5.3-10.4-7.1c-0.5-1.2,1.2-1.2,1.8-0.8c-0.7,0.2-1.2,0.7-1.1,1.1c4.7,3.2,9.7-3.4,12.9-2.1c2.5,1,4.2,3,5,3.2
		c0.8,0.2,3.1-1.1,3.1-1.1c-0.5-0.4-1.2-0.9-2-1.3c2.6-2.6,2.8-6.6,0.8-9.5c0.4,2.8,0,6.8-3.5,8c-0.9-0.8-1.9-1.1-3.2-1
		c1.1-1,2.1-1.1,2.1-1.1c0.8,0.4,1.6,1,1.6,1c1.8-1.2,2.4-2.8,2.4-2.8c-3.6-2.9-3.5-5.3-5.3-6.7c-1.7-1.3-2.6-1.7-4.5-2.2
		c0.4,0.6,0.7,1.6,0.7,1.8c-1-0.9-1.7-1.9-4.2-3.3c-0.6,0.7-0.8,4.1,0.7,5.6c-1.5-0.6-2.3-3-2.1-5c-5.5-0.3-11.1,1.3-15.4,3.3
		c4.3-2.9,10.1-4.7,15.7-4.3c0.2-0.7,0.5-1.3,1-1.5c0.2,0.6,0.8,1.2,1.6,1.8c2.4,0.5,4.8,1.3,6.9,2.9c0.6-0.7,1.7-1.6,3.4-3
		c-0.7-0.6-1.4-1.1-2.2-1.5c-0.6,0.6-1.3,1.3-2.1,2c0.7-0.9,1.1-1.7,1.4-2.4c-0.6-0.4-1.2-0.7-1.8-1c-0.6,0.9-1.3,1.7-2.1,2.4
		c0.6-1.1,1-2,1.3-2.8c-0.5-0.3-1.1-0.5-1.6-0.7c-0.5,1.1-1.1,2-1.9,2.8c0.6-1.4,0.8-2.4,0.8-3.2c-0.5-0.2-1-0.3-1.5-0.5
		c-0.3,1-1,2.1-1.6,2.9c0.3-1.3,0.5-2.4,0.5-3.2c-0.6-0.1-1.3-0.3-1.9-0.3c-0.2,1.1-0.7,2.5-1.2,3.3c0.1-1.6,0-2.7-0.1-3.5
		c-0.5,0-1.1-0.1-1.6-0.1c-0.1,1-0.6,2.2-0.9,3.4c0-1.4-0.2-2.6-0.4-3.4c-0.7,0-1.3,0.1-1.9,0.1c0.2,1.1,0,2.6-0.1,3.5
		c-0.3-1.6-0.7-2.7-1.1-3.3c-0.7,0.1-1.4,0.2-2.1,0.4c0.5,1,0.5,2.3,0.6,3.4c-0.8-1.5-1.6-2.5-2.1-3c-0.8,0.2-1.5,0.5-2.2,0.7
		c0.7,0.9,1.2,2.2,1.4,3.4c-0.8-1.4-1.8-2.4-2.5-2.9c-0.7,0.3-1.3,0.6-1.9,0.9c0.7,0.8,1.6,2,2,3.1c0,0-1.5-1.8-3.2-2.4
		c-0.6,0.4-1.2,0.7-1.8,1.1c0.8,0.6,2.1,1.7,2.6,2.6c0,0-1.7-1.3-3.7-1.9c-0.5,0.3-1,0.7-1.5,1c0.7,0.5,1.8,1.2,2.4,2.2
		c0,0-1.9-1.3-3.4-1.5c-0.5,0.3-0.9,0.7-1.4,1c0.5,0.3,1.5,0.8,2.5,1.7c0,0-2-0.5-3.5-1c-0.5,0.4-1,0.7-1.4,1
		c0.7,0.4,1.8,0.9,2.8,1.1c0.1,0-2.1,0.1-3.7-0.5c-0.9,0.6-1.7,1.1-2.6,1.5c1.5,0.9,6,0.9,7.5,0.5c-2.7,2-8.9,1.9-11.7,1.6
		c-2.7-0.3-5.3,0.9-8.4,3.1c-3.1,2.2-7.9,3.9-13.1,1.9c0,0.5,0.1,1.2,0.3,1.9c1.1,0.5,3.1,0.7,4.1,0.5c-0.9,0.7-2.7,0.8-3.6,0.8
		c0.5,0.8,1.1,1.5,2.2,1.9c1.7-0.3,2.9-1.4,3.1-1.8c-0.1,1-0.7,1.7-1.1,2.1c1.7,0.3,3.6-1.1,4.6-2.2c2.3-2.6,4.5-2.9,4.5-2.9
		c-3.2,4-0.9,9.1-6.9,10.7c-1.7,0.5-2.3,5.9-5.1,6.5c0,0.8-0.5,1.9-2.1,1.9c0,0.2-0.3,0.8-0.6,1.5c1.4,0.2,2-0.2,2-0.2
		c-1,1.1-1.9,1.6-2.6,1.8c-0.4,1.1-0.7,2-0.5,2.7c5.2-1.6,6.9-4.1,6.9-4.1c1.4-3.6,3.7-7,4.5-7.1c0.4-0.1,0.9-0.2,1.4-0.2
		c0.1,1.8-1.8,3.3-3,3.5c0,0-0.3,0.5-0.8,1.7c1.2-0.1,1.9-0.6,1.9-0.6c-0.3,0.7-1.6,1.4-2.2,1.6c-0.2,0.5-0.3,1-0.5,1.6
		c1.4,0.4,4.8-1.2,5.7-2.5c0.5-0.8,1.6-2.9,3.8-5.1c0,0-2.1-0.1-3.1-0.5c1.7-0.2,4.5-0.4,5.6-0.9c2.5-1,5.4-6.1,12-6.7
		c-3.9,1.6-6.2,3.2-6.9,4.6c4.5-1.7,18.5-2.4,19.8-1.9c-1.4-1-4.2-1.7-5.4-3.2c-0.9-1.1,2.4-3.8,2.4-3.8c-2.3-2.6-5.4-2.1-5.4-2.1
		c2.4-1,5.7,0.6,7,1.5c-3,1.9-3.4,3.8-1.6,5c3.2,2.1,10.8,1.7,10.9,2.8c0.2,2,5.2,2,5.9,4.3c0.7,2.3,2.3,2.6,2.3,2.6s0.3-1,1.4-0.1
		c1.1,0.8,1.1,1.2,1.1,1.2c1.3,0.1,2.6,0,3.7-0.3c-0.5-0.4-1.1-1-1.6-1.6c0,0,1.6,0.6,3.2,1.1c1-0.4,1.6-0.9,1.7-1.4
		c-1.2-0.6-2-1.1-2-1.1C77.9,59.2,76.7,58.6,75.1,57z M80.3,41.4c-0.9-0.8-1.3-1.2-1.3-1.2c-1.3,2.2-4.3-0.6-1.8-1.3
		c-0.3-0.3-1.8-0.6-2.6-0.4C76.2,37.3,78.9,37.7,80.3,41.4z M73.9,36.8c-0.4,1.1-1.2,0.6-1,0.1c0.4-0.9-0.1-1.3-0.7-2.4
		C72.2,34.5,74.3,35.7,73.9,36.8z M73,41.2c-1.9-0.4-2.9-0.1-3.9,0.7c1-0.1,2.1,0.7,2.7,1.4c-0.9,0-2.2,0.5-2.9,1.4
		c0,0,1.2-0.2,2.1,0.3c0,0-0.8,0.5-1,1.9c0,0,1.6-0.5,2.4-0.2c-0.8,0.3-3,1.2-3.4,2.8c-0.3-0.8-0.3-2.5,0.7-4c0,0-1.1-0.5-2.2-0.1
		c0.3-0.7,0.7-1.5,2.4-2.2c0,0-0.9-0.9-2.5-0.7C68,40.7,70.3,39.7,73,41.2z M41.3,48.2c-0.4,1.3-3.1,3.2-3.7,5.4
		c-0.2-2.3,3.3-5.1,2.2-6c-1.2-0.9-3.2-2.1-3.2-3.2C38.2,46.5,41.8,46.9,41.3,48.2z M80,53c-1.5,0-4.4-1.7-5.9-3.1
		c0,0-2.2,1.9-5.6,1.8c3,1.2,7.2,2.4,9.4,4.7c2.3-0.4,3.2,0.6,3.8,1.1c0.6,0,2.5-0.4,3.9-1.2c-0.7-0.2-1.5-0.6-1.9-1.1
		c0,0,1.9,0.4,3.1,0.2c0.3-0.3,0.5-0.7,0.5-1.2C85,54.3,81.5,53,80,53z M87.1,45.3c-0.2,0.9-0.5,1.8-1.5,3c0,0,0.5,0.6,1.5,1
		c0.2,0,2.7-1.6,3.5-3.1C90.6,46.3,88.9,46.2,87.1,45.3z"/>
</g>
</svg>
