<?xml version="1.0" encoding="utf-8"?>
<!-- Generator: Adobe Illustrator 19.2.1, SVG Export Plug-In . SVG Version: 6.00 Build 0)  -->
<svg version="1.1" id="Слой_1" xmlns="http://www.w3.org/2000/svg" xmlns:xlink="http://www.w3.org/1999/xlink" x="0px" y="0px"
	 viewBox="0 0 157 37.9" style="enable-background:new 0 0 157 37.9;" xml:space="preserve">
<style type="text/css">
	.st0{fill:#FCC000;}
</style>
<g>
	<path class="st0" d="M27.6,3.2l2.1,9.8c6.1-1.3,12.6-2.2,19.1-2.6l-0.7-10C41.1,0.9,34.2,1.8,27.6,3.2z"/>
	<path class="st0" d="M56.3,0l0.2,10c6.4-0.1,12.9,0.2,19.4,0.8l1-9.9C70,0.2,63.1-0.1,56.3,0z"/>
	<path class="st0" d="M0,12.4l4.2,9.1c5.6-2.6,11.7-4.9,18-6.6l-2.7-9.6C12.7,7.1,6.1,9.5,0,12.4z"/>
	<path class="st0" d="M83.6,11.8c6.4,1,12.8,2.3,19,4l2.6-9.7C98.6,4.4,91.9,3,85.1,1.9L83.6,11.8z"/>
	<path class="st0" d="M132.3,16.1c-6.1-2.9-12.5-5.4-19.2-7.6L110,18c6.3,2,12.3,4.4,18,7.1L132.3,16.1z"/>
	<polygon class="st0" points="144.1,10.9 127.2,35.7 157,37.9 	"/>
</g>
</svg>
