<?xml version="1.0" encoding="utf-8"?>
<!-- Generator: Adobe Illustrator 19.2.1, SVG Export Plug-In . SVG Version: 6.00 Build 0)  -->
<svg version="1.1" id="Слой_1" xmlns="http://www.w3.org/2000/svg" xmlns:xlink="http://www.w3.org/1999/xlink" x="0px" y="0px"
	 viewBox="0 0 157 37.9" style="enable-background:new 0 0 157 37.9;" xml:space="preserve">
<style type="text/css">
	.st0{fill:#FCC000;}
</style>
<g>
	<path class="st0" d="M108.9,0.4l-0.7,10c6.5,0.4,13,1.3,19.1,2.6l2.1-9.8C122.8,1.8,115.9,0.9,108.9,0.4z"/>
	<path class="st0" d="M80.1,1l1,9.9c6.5-0.7,13-1,19.4-0.9l0.2-10C93.9-0.1,87,0.2,80.1,1z"/>
	<path class="st0" d="M137.5,5.3l-2.7,9.6c6.3,1.7,12.4,4,18,6.6l4.2-9.1C150.9,9.5,144.3,7.1,137.5,5.3z"/>
	<path class="st0" d="M71.9,1.9c-6.7,1-13.5,2.4-20.1,4.2l2.6,9.7c6.2-1.7,12.6-3,19-4L71.9,1.9z"/>
	<path class="st0" d="M29,25.1c5.7-2.7,11.7-5.1,18-7.1l-3.1-9.5c-6.7,2.2-13.1,4.7-19.2,7.6L29,25.1z"/>
	<polygon class="st0" points="0,37.9 29.8,35.7 13,10.9 	"/>
</g>
</svg>
