<?xml version="1.0" encoding="utf-8"?>
<!-- Generator: Adobe Illustrator 19.2.1, SVG Export Plug-In . SVG Version: 6.00 Build 0)  -->
<svg version="1.1" id="Слой_1" xmlns="http://www.w3.org/2000/svg" xmlns:xlink="http://www.w3.org/1999/xlink" x="0px" y="0px"
	 viewBox="0 0 25.3 26.3" style="enable-background:new 0 0 25.3 26.3;" xml:space="preserve">
<style type="text/css">
	.st0{fill:#FFFFFF;}
</style>
<g>
	<path class="st0" d="M25.1,21.1l-5.6-3.4c-0.3-0.2-0.7-0.1-0.9,0.2l-1.6,1.7c-0.2,0.2-0.7,0.4-1,0.4c0,0-2.1,0-6-4
		c-3.9-4-3.9-6.2-3.9-6.2c0-0.3,0.2-0.8,0.4-1l1.4-1.4C8.1,7,8.2,6.6,8,6.3L5,0.3C4.8,0,4.5-0.1,4.3,0.2L0.5,4.1
		C0.3,4.4,0.1,4.8,0,5.2c0,0-0.7,5.7,7,13.8c7.8,8.1,13.3,7.3,13.3,7.3c0.3,0,0.8-0.3,1-0.5l3.8-3.9C25.4,21.5,25.3,21.2,25.1,21.1z
		"/>
	<path class="st0" d="M11.5,10.3c0.8,0.2,1.6,0.6,2.2,1.3c0.6,0.7,1.1,1.5,1.3,2.3h1.6c-0.2-1.3-0.7-2.5-1.6-3.5
		c-0.9-1-2.1-1.6-3.4-1.7V10.3z"/>
	<path class="st0" d="M23.1,13.9l1.8,0C24.8,6.7,18.4,0.1,11.5,0l0,1.9C17.7,2.2,22.7,7.4,23.1,13.9z"/>
	<path class="st0" d="M18.9,13.9l1.8,0c-0.4-5.1-4.3-9.2-9.3-9.6v1.9C15.4,6.6,18.5,9.8,18.9,13.9z"/>
</g>
</svg>
