<?xml version="1.0" encoding="utf-8"?>
<!-- Generator: Adobe Illustrator 19.2.1, SVG Export Plug-In . SVG Version: 6.00 Build 0)  -->
<svg version="1.1" id="Слой_1" xmlns="http://www.w3.org/2000/svg" xmlns:xlink="http://www.w3.org/1999/xlink" x="0px" y="0px"
	 viewBox="0 0 100 100" style="enable-background:new 0 0 100 100;" xml:space="preserve">
<style type="text/css">
	.st0{fill:#CC4425;}
	.st1{fill:#FCC000;}
</style>
<g>
	<circle class="st0" cx="50" cy="50" r="50"/>
	<path class="st1" d="M70.8,51.2c0,0,8.6-12.2,9.5-16.2c0.3-1.4-0.3-2.2-1.8-2.2c0,0-5,0-7.5,0c-1.7,0-2.3,0.7-2.9,1.8
		c0,0-4,8.6-9,14.1c-1.6,1.8-2.4,2.3-3.3,2.3c-0.7,0-1-0.6-1-2.2V34.9c0-1.9-0.2-2.5-1.8-2.5H41c-0.9,0-1.5,0.5-1.5,1.3
		c0,1.8,2.8,2.2,2.8,7.2v10.2c0,2.1-0.1,2.9-1.1,2.9c-2.6,0-8.7-8.9-12.1-18.9c-0.7-2.1-1.4-2.6-3.4-2.6h-7.5
		c-1.1,0-1.9,0.7-1.9,1.8c0,2,2.3,11.3,11.6,23.7c6.2,8.3,14.3,12.9,21.6,12.9c4.5,0,5.5-0.7,5.5-2.6v-6.4c0-1.6,0.6-2.3,1.5-2.3
		c1,0,2.8,0.3,7.1,4.5c5,4.8,5.4,6.8,8.1,6.8h8.4c0.9,0,1.7-0.4,1.7-1.8c0-1.9-2.5-5.3-6.2-9.3c-1.5-2.1-4.1-4.3-4.9-5.3
		C69.7,53.2,70,52.5,70.8,51.2z"/>
</g>
</svg>
